<svg width="256" height="256" viewBox="0 0 256 256" fill="none" xmlns="http://www.w3.org/2000/svg">
<rect width="256" height="256" rx="30" fill="url(#paint0_radial_0_1)"/>
<path d="M115.727 162.727V161.909C115.818 153.227 116.727 146.318 118.455 141.182C120.182 136.045 122.636 131.886 125.818 128.705C129 125.523 132.818 122.591 137.273 119.909C139.955 118.273 142.364 116.341 144.5 114.114C146.636 111.841 148.318 109.227 149.545 106.273C150.818 103.318 151.455 100.045 151.455 96.4545C151.455 92 150.409 88.1364 148.318 84.8636C146.227 81.5909 143.432 79.0682 139.932 77.2954C136.432 75.5227 132.545 74.6364 128.273 74.6364C124.545 74.6364 120.955 75.4091 117.5 76.9545C114.045 78.5 111.159 80.9318 108.841 84.25C106.523 87.5682 105.182 91.9091 104.818 97.2727H87.6364C88 89.5455 90 82.9318 93.6364 77.4318C97.3182 71.9318 102.159 67.7273 108.159 64.8182C114.205 61.9091 120.909 60.4545 128.273 60.4545C136.273 60.4545 143.227 62.0454 149.136 65.2273C155.091 68.4091 159.682 72.7727 162.909 78.3182C166.182 83.8636 167.818 90.1818 167.818 97.2727C167.818 102.273 167.045 106.795 165.5 110.841C164 114.886 161.818 118.5 158.955 121.682C156.136 124.864 152.727 127.682 148.727 130.136C144.727 132.636 141.523 135.273 139.114 138.045C136.705 140.773 134.955 144.023 133.864 147.795C132.773 151.568 132.182 156.273 132.091 161.909V162.727H115.727ZM124.455 203.091C121.091 203.091 118.205 201.886 115.795 199.477C113.386 197.068 112.182 194.182 112.182 190.818C112.182 187.455 113.386 184.568 115.795 182.159C118.205 179.75 121.091 178.545 124.455 178.545C127.818 178.545 130.705 179.75 133.114 182.159C135.523 184.568 136.727 187.455 136.727 190.818C136.727 193.045 136.159 195.091 135.023 196.955C133.932 198.818 132.455 200.318 130.591 201.455C128.773 202.545 126.727 203.091 124.455 203.091Z" fill="url(#paint1_linear_0_1)"/>
<defs>
<radialGradient id="paint0_radial_0_1" cx="0" cy="0" r="1" gradientUnits="userSpaceOnUse" gradientTransform="translate(250 5.49999) rotate(136.543) scale(394.001)">
<stop stop-color="#222222"/>
<stop offset="1"/>
</radialGradient>
<linearGradient id="paint1_linear_0_1" x1="129" y1="16" x2="129" y2="248" gradientUnits="userSpaceOnUse">
<stop stop-color="white"/>
<stop offset="1" stop-color="#999999"/>
</linearGradient>
</defs>
</svg>
